<svg width="272" height="8" viewBox="0 0 272 8" fill="none" xmlns="http://www.w3.org/2000/svg">
<g opacity="0.8">
<path fill-rule="evenodd" clip-rule="evenodd" d="M6.39279 6.47535C12.145 6.02887 27.2626 5.99958 68.3013 5.93591C132.385 5.83922 183.244 5.32716 197.379 4.61047C198.502 4.54338 108.673 4.09745 99.4478 4.45681C85.0671 5.04048 16.3884 4.58461 2.5683 3.92544C-1.36027 3.74978 0.112639 3.1278 2.6731 2.99346C6.67161 2.76969 17.4049 2.78684 46.8335 2.81739C67.5282 2.82985 232.173 2.2421 250.167 1.32391C260.268 0.808816 266.406 0.339968 269.212 0.449592C271.562 0.537243 271.598 0.803491 269.564 1.53668C268.196 2.02547 269.739 2.3132 270.722 2.44587C272.23 2.66705 271.599 3.42177 269.705 4.02175C267.145 4.84394 262.725 4.82383 264.83 4.00186C265.285 3.82413 265.391 3.38031 263.777 3.46982C259.077 3.7383 225.861 5.57339 216.847 5.88827C120.601 9.3062 26.6667 6.88741 6.77917 7.71774C-0.270905 8.0317 2.9555 6.74323 6.39279 6.47535Z" fill="url(#paint0_linear_193_407)"/>
</g>
<defs>
<linearGradient id="paint0_linear_193_407" x1="0.152588" y1="4.19458" x2="271.563" y2="4.06699" gradientUnits="userSpaceOnUse">
<stop stop-color="#B1420A"/>
<stop offset="0.255" stop-color="#ED560A"/>
<stop offset="0.54" stop-color="#FF8040"/>
<stop offset="0.775" stop-color="#ED560A"/>
<stop offset="1" stop-color="#B1420A"/>
</linearGradient>
</defs>
</svg>
