<svg width="193" height="35" viewBox="0 0 193 35" fill="none" xmlns="http://www.w3.org/2000/svg">
<path fill-rule="evenodd" clip-rule="evenodd" d="M38.043 0.739258V34.2587L55.3168 24.7992V20.892L49.1476 23.771V0.739258H38.043ZM19.125 34.2605V5.88208H30.2296V23.7728L36.3988 20.8939V24.801L19.125 34.2605ZM74.2137 24.6319L69.79 11.1099H73.0353L76.0861 20.6147L79.2748 11.1099H82.1723L85.2612 20.6853L88.4118 11.1099H91.4059L86.9823 24.6319H83.6211L80.6401 15.4698L77.5749 24.6319H74.2137ZM102.425 11.1099H105.555V24.6319H102.425V19.0879H96.2823V24.6319H93.1529V11.1099H96.2823V16.4414H102.425V11.1099ZM108.754 11.1099V24.6319H111.883V11.1099H108.754ZM117.893 24.6319V13.6597H113.566V11.1099H125.35V13.6597H121.023V24.6319H117.893ZM130.144 18.9913V22.1206H137.503V24.6319H127.033V11.1099H137.252V13.6211H130.144V16.5573H136.422V18.9913H130.144ZM139.993 24.6319V11.1099H143.123V22.082H149.903V24.6319H139.993ZM154.762 18.9913V22.1206H162.121V24.6319H151.652V11.1099H161.87V13.6211H154.762V16.5573H161.04V18.9913H154.762ZM162.834 24.6319L168.861 11.1099H171.952L177.998 24.6319H174.714L173.514 21.7343H167.246L166.041 24.6319H162.834ZM170.386 14.1832L172.53 19.3583H168.234L170.386 14.1832ZM179.401 11.1099V24.6319H185.544C187.012 24.6319 188.306 24.355 189.427 23.8012C190.547 23.2346 191.423 22.449 192.054 21.4445C192.685 20.4272 193 19.236 193 17.8709C193 16.4929 192.685 15.3017 192.054 14.2972C191.423 13.2927 190.547 12.5136 189.427 11.9598C188.306 11.3932 187.012 11.1099 185.544 11.1099H179.401ZM185.389 22.0627H182.53V13.679H185.389C186.291 13.679 187.07 13.8529 187.727 14.2006C188.396 14.5354 188.912 15.0184 189.272 15.6494C189.646 16.2675 189.832 17.008 189.832 17.8709C189.832 18.7208 189.646 19.4613 189.272 20.0923C188.912 20.7234 188.396 21.2127 187.727 21.5605C187.07 21.8953 186.291 22.0627 185.389 22.0627ZM0 11.6362V34.2567L17.2738 24.7972V20.8901L11.1046 23.769V11.6362H0Z" fill="url(#paint0_linear_249_755)"/>
<defs>
<linearGradient id="paint0_linear_249_755" x1="0" y1="17.4999" x2="193" y2="17.4999" gradientUnits="userSpaceOnUse">
<stop stop-color="#9B8A82"/>
<stop offset="0.125" stop-color="#8D7C74"/>
<stop offset="0.24" stop-color="#7D6C64"/>
<stop offset="0.41" stop-color="#DDCCC4"/>
<stop offset="0.53" stop-color="#DDCCC4"/>
<stop offset="0.655" stop-color="#DDCCC4"/>
<stop offset="0.775" stop-color="#A99890"/>
<stop offset="0.865" stop-color="#9E8D85"/>
<stop offset="0.995" stop-color="#8E7D75"/>
</linearGradient>
</defs>
</svg>
