<svg xmlns="http://www.w3.org/2000/svg" xmlns:xlink="http://www.w3.org/1999/xlink"><symbol id="sprite-arrow-right" viewBox="0 0 512 512"><title>arrow-right</title><path d="M318.431 464.717L501.288 281.86c14.283-14.281 14.283-37.438 0-51.72L318.431 47.283c-14.283-14.281-37.438-14.281-51.72 0-14.282 14.282-14.282 37.438 0 51.72L387.138 219.43H36.572C16.374 219.43 0 235.804 0 256.002s16.373 36.572 36.572 36.572h350.566L266.711 413c-7.14 7.14-10.711 16.5-10.711 25.86s3.57 18.719 10.711 25.86c14.283 14.283 37.438 14.283 51.72 0z"/></symbol><symbol id="sprite-arrow" viewBox="0 0 1024 1024"><title>arrow</title><path d="M1023.999 84.783c0-46.824-37.954-84.782-84.782-84.782H176.178c-46.824 0-84.782 37.958-84.782 84.782s37.958 84.782 84.782 84.782h678.256v678.257c0 46.828 37.96 84.782 84.782 84.782 46.828 0 84.782-37.954 84.782-84.782V84.782zM119.9 1024.001l879.27-879.267-119.899-119.9L0 904.103l119.9 119.899z"/></symbol><symbol fill="none" id="sprite-instagram" viewBox="0 0 52 52"><title>instagram</title><path d="M26.057 52h-.114C11.638 52 0 40.362 0 26.057v-.114C0 11.638 11.638 0 25.943 0h.114C40.362 0 52 11.638 52 25.943v.114C52 40.362 40.362 52 26.057 52zm-.114-50.24C12.608 1.76 1.76 12.608 1.76 25.943v.114c0 13.335 10.848 24.183 24.183 24.183h.114c13.335 0 24.183-10.848 24.183-24.183v-.114c0-13.335-10.848-24.183-24.183-24.183h-.114z" fill="url(#paint0_linear_193_345)"/><path d="M33.774 11.102H18.228c-4.295 0-7.789 3.493-7.789 7.788v14.222c0 4.295 3.494 7.789 7.79 7.789h15.545c4.294 0 7.788-3.494 7.788-7.789V18.89c0-4.295-3.493-7.788-7.788-7.788zM13.187 18.89a5.047 5.047 0 015.041-5.04h15.546a5.047 5.047 0 015.04 5.04v14.222a5.047 5.047 0 01-5.04 5.041H18.228a5.047 5.047 0 01-5.041-5.04V18.89z" fill="url(#paint1_linear_193_345)"/><path d="M26 33.244c3.994 0 7.245-3.249 7.245-7.244a7.252 7.252 0 00-7.244-7.245A7.252 7.252 0 0018.756 26 7.252 7.252 0 0026 33.244zm0-11.74a4.502 4.502 0 014.498 4.497A4.502 4.502 0 0126 30.5a4.502 4.502 0 01-4.497-4.5 4.502 4.502 0 014.498-4.497z" fill="url(#paint2_linear_193_345)"/><path d="M33.917 19.925a1.953 1.953 0 10-1.952-1.952c0 1.078.875 1.953 1.952 1.953z" fill="url(#paint3_linear_193_345)"/><defs><linearGradient id="paint0_linear_193_345" x1="0" y1="26" x2="52" y2="26" gradientUnits="userSpaceOnUse"><stop stop-color="#B1420A"/><stop offset=".255" stop-color="#ED560A"/><stop offset=".54" stop-color="#FF8040"/><stop offset=".775" stop-color="#ED560A"/><stop offset="1" stop-color="#B1420A"/></linearGradient><linearGradient id="paint1_linear_193_345" x1="10.44" y1="26.001" x2="41.562" y2="26.001" gradientUnits="userSpaceOnUse"><stop stop-color="#B1420A"/><stop offset=".255" stop-color="#ED560A"/><stop offset=".54" stop-color="#FF8040"/><stop offset=".775" stop-color="#ED560A"/><stop offset="1" stop-color="#B1420A"/></linearGradient><linearGradient id="paint2_linear_193_345" x1="18.756" y1="26" x2="33.245" y2="26" gradientUnits="userSpaceOnUse"><stop stop-color="#B1420A"/><stop offset=".255" stop-color="#ED560A"/><stop offset=".54" stop-color="#FF8040"/><stop offset=".775" stop-color="#ED560A"/><stop offset="1" stop-color="#B1420A"/></linearGradient><linearGradient id="paint3_linear_193_345" x1="31.965" y1="17.974" x2="35.869" y2="17.974" gradientUnits="userSpaceOnUse"><stop stop-color="#B1420A"/><stop offset=".255" stop-color="#ED560A"/><stop offset=".54" stop-color="#FF8040"/><stop offset=".775" stop-color="#ED560A"/><stop offset="1" stop-color="#B1420A"/></linearGradient></defs></symbol><symbol id="sprite-menu" viewBox="0 0 1024 1024"><title>menu</title><path fill="none" stroke-linecap="round" stroke-width="90.353" stroke="#000" d="M45.177 210.824h933.646M256 512h722.822M436.705 813.177h542.118"/></symbol><symbol class="ldi-47ibm8" preserveAspectRatio="xMidYMid" style="width:525px;webkit-user-select:none;webkit-transform-origin:262.5px 262.5px;webkit-perspective-origin:262.5px 262.5px;webkit-logical-width:525px;webkit-logical-height:525px;user-select:none;transform-origin:262.5px 262.5px;r:0;perspective-origin:262.5px 262.5px;overflow-y:hidden;overflow-x:hidden;inline-size:525px;height:525px;d:none;block-size:525px;background:0 0/auto padding-box border-box" pointer-events="all" overflow="hidden" display="block" id="sprite-ok" viewBox="0 0 100 100"><title>ok</title><svg version="1.1" id="圖層_1" xmlns="http://www.w3.org/2000/svg" x="0" y="0" viewBox="0 0 100 100" xml:space="preserve" style="x:0;webkit-user-select:none;webkit-transform-origin:50px 50px;webkit-perspective-origin:0 0;user-select:none;transform-origin:50px 50px;r:0;perspective-origin:0 0;overflow-y:hidden;overflow-x:hidden" pointer-events="all" overflow="hidden" display="block"><g style="x:0;webkit-user-select:none;webkit-transform-origin:50px 50px;webkit-perspective-origin:0 0;user-select:none;transform-origin:50px 50px;r:0;perspective-origin:0 0"><g style="x:0;webkit-user-select:none;webkit-transform-origin:50px 50px;webkit-transform:matrix(.7,0,0,.7,0,0);webkit-perspective-origin:0 0;user-select:none;transform-origin:50px 50px;r:0;perspective-origin:0 0"><g style="x:0;webkit-user-select:none;webkit-transform-origin:50px 50px;webkit-perspective-origin:0 0;user-select:none;transform-origin:50px 50px;r:0;perspective-origin:0 0"><g style="webkit-user-select:none;webkit-perspective-origin:0 0;user-select:none;perspective-origin:0 0" transform="scale(.7)"><style/><g style="y:0;x:0;webkit-user-select:none;webkit-transform-origin:50px 50px;webkit-perspective-origin:0 0;webkit-animation-duration:2.2s;webkit-animation-delay:.169231s;webkit-animation:2.2s ease .169231s 1 normal none running none;user-select:none;transform-origin:50px 50px;r:0;perspective-origin:0 0;d:none"><circle cx="50" cy="50" r="40" stroke="#3c3" style="webkit-user-select:none;webkit-perspective-origin:0 0;user-select:none;r:40px;perspective-origin:0 0;cy:50px;cx:50px" stroke-width="8" stroke-miterlimit="10" fill="none"/></g><g style="x:0;webkit-user-select:none;webkit-transform-origin:50px 50px;webkit-perspective-origin:0 0;user-select:none;transform-origin:50px 50px;r:0;perspective-origin:0 0"><g style="webkit-user-select:none;webkit-perspective-origin:0 0;user-select:none;perspective-origin:0 0"><g style="y:0;x:0;webkit-user-select:none;webkit-transform-origin:50px 50px;webkit-perspective-origin:0 0;webkit-animation-duration:2.2s;webkit-animation-delay:.338462s;webkit-animation:2.2s ease .338462s 1 normal none running none;user-select:none;transform-origin:50px 50px;r:0;perspective-origin:0 0;d:none" class="ld"><path fill="#3c3" style="webkit-user-select:none;webkit-perspective-origin:0 0;user-select:none;r:0;perspective-origin:0 0" d="M43.7 69.4L25 47.7l3.9-3.9 14.8 12.6 28.6-25.8 2.7 2.7z"/></g></g></g></g></g></g></g><style>@keyframes ldt-bounce-in{0%{-webkit-transform:scale(0);transform:scale(0)}5%{-webkit-transform:scale(.0846);transform:scale(.0846)}6%{-webkit-transform:scale(.191);transform:scale(.191)}7%{-webkit-transform:scale(.3255);transform:scale(.3255)}8%{-webkit-transform:scale(.4804);transform:scale(.4804)}9%{-webkit-transform:scale(.646);transform:scale(.646)}10%{-webkit-transform:scale(.8116);transform:scale(.8116)}11%{-webkit-transform:scale(.9665);transform:scale(.9665)}12%{-webkit-transform:scale(1.1);transform:scale(1.1)}13%{-webkit-transform:scale(1.2069);transform:scale(1.2069)}14%{-webkit-transform:scale(1.2796);transform:scale(1.2796)}19%{-webkit-transform:scale(1.1558);transform:scale(1.1558)}20%{-webkit-transform:scale(1.07);transform:scale(1.07)}21%{-webkit-transform:scale(.9823);transform:scale(.9823)}22%{-webkit-transform:scale(.901);transform:scale(.901)}23%{-webkit-transform:scale(.8328);transform:scale(.8328)}25%{-webkit-transform:scale(.7551);transform:scale(.7551)}29%{-webkit-transform:scale(.8516);transform:scale(.8516)}31%{-webkit-transform:scale(.973);transform:scale(.973)}33%{-webkit-transform:scale(1.0857);transform:scale(1.0857)}35%{-webkit-transform:scale(1.1538);transform:scale(1.1538)}40%{-webkit-transform:scale(1.0771);transform:scale(1.0771)}42%{-webkit-transform:scale(.9954);transform:scale(.9954)}45%{-webkit-transform:scale(.9057);transform:scale(.9057)}52%{-webkit-transform:scale(.9908);transform:scale(.9908)}56%{-webkit-transform:scale(1.0623);transform:scale(1.0623)}64%{-webkit-transform:scale(.9845);transform:scale(.9845)}}@-webkit-keyframes ldt-bounce-in{0%{-webkit-transform:scale(0);transform:scale(0)}5%{-webkit-transform:scale(.0846);transform:scale(.0846)}6%{-webkit-transform:scale(.191);transform:scale(.191)}7%{-webkit-transform:scale(.3255);transform:scale(.3255)}8%{-webkit-transform:scale(.4804);transform:scale(.4804)}9%{-webkit-transform:scale(.646);transform:scale(.646)}10%{-webkit-transform:scale(.8116);transform:scale(.8116)}11%{-webkit-transform:scale(.9665);transform:scale(.9665)}12%{-webkit-transform:scale(1.1);transform:scale(1.1)}13%{-webkit-transform:scale(1.2069);transform:scale(1.2069)}14%{-webkit-transform:scale(1.2796);transform:scale(1.2796)}19%{-webkit-transform:scale(1.1558);transform:scale(1.1558)}20%{-webkit-transform:scale(1.07);transform:scale(1.07)}21%{-webkit-transform:scale(.9823);transform:scale(.9823)}22%{-webkit-transform:scale(.901);transform:scale(.901)}23%{-webkit-transform:scale(.8328);transform:scale(.8328)}25%{-webkit-transform:scale(.7551);transform:scale(.7551)}29%{-webkit-transform:scale(.8516);transform:scale(.8516)}31%{-webkit-transform:scale(.973);transform:scale(.973)}33%{-webkit-transform:scale(1.0857);transform:scale(1.0857)}35%{-webkit-transform:scale(1.1538);transform:scale(1.1538)}40%{-webkit-transform:scale(1.0771);transform:scale(1.0771)}42%{-webkit-transform:scale(.9954);transform:scale(.9954)}45%{-webkit-transform:scale(.9057);transform:scale(.9057)}52%{-webkit-transform:scale(.9908);transform:scale(.9908)}56%{-webkit-transform:scale(1.0623);transform:scale(1.0623)}64%{-webkit-transform:scale(.9845);transform:scale(.9845)}}</style></svg></symbol><symbol id="sprite-pass-hidden" viewBox="0 0 1024 1024"><title/><path d="M105.927 153.769l106.184 81.479c86.849-54.654 189.67-86.285 299.891-86.285 212.181 0 396.935 117.218 493.127 290.256 25.159 45.258 25.159 100.312 0 145.57-33.66 60.558-78.171 114.278-130.905 158.526l89.059 68.34c16.181 12.415 19.228 35.59 6.817 51.765-12.415 16.175-35.59 19.228-51.765 6.817L812.038 788.67l-.074.044-63.121-48.438a.942.942 0 01.078-.044l-78.692-60.38c-.02.015-.039.035-.059.054l-59.716-45.824c.02-.015.039-.035.063-.05L368.721 448.491c-.012.024-.022.05-.033.074l-59.725-45.828.038-.072-98.874-75.871c-.022.017-.044.033-.065.051l-60.219-46.209.063-.053-88.928-68.239c-16.176-12.413-19.227-35.589-6.814-51.764s35.589-19.228 51.764-6.814zm169.312 129.92l78.752 60.43c41.278-38.893 96.902-62.729 158.095-62.729 127.361 0 230.602 103.253 230.602 230.616 0 39.543-9.953 76.762-27.487 109.285l98.806 75.817c51.441-40.311 94.622-90.693 126.589-148.194a75.966 75.966 0 000-73.819C856.898 324.54 696.304 222.801 512.004 222.801c-85.859 0-166.572 22.079-236.763 60.887zm380.235 291.774c8.6-19.4 13.375-40.872 13.375-63.457 0-86.588-70.186-156.777-156.763-156.777-37.258 0-71.48 13-98.383 34.713l241.771 185.521zM18.87 439.22a565.37 565.37 0 0177.026-106.904l58.824 45.138a491.782 491.782 0 00-71.314 97.641 75.977 75.977 0 000 73.819c83.697 150.556 244.291 252.295 428.596 252.295 56.058 0 109.921-9.412 160.097-26.749l68.296 52.406c-69.812 30.973-147.091 48.182-228.392 48.182-212.184 0-396.938-117.221-493.133-290.259-25.159-45.258-25.159-100.312 0-145.57zm262.616 72.785c0-11.977.913-23.741 2.673-35.226l72.479 55.615c9.994 76.955 75.785 136.39 155.447 136.39 6.965 0 13.827-.453 20.551-1.334l72.494 55.63c-28.458 12.563-59.937 19.543-93.047 19.543-127.356 0-230.599-103.256-230.599-230.617z"/></symbol><symbol id="sprite-pass-visible" viewBox="0 0 1024 1024"><title/><path d="M83.406 475.096C167.103 324.544 327.697 222.811 512 222.811s344.899 101.734 428.594 252.285a75.96 75.96 0 010 73.816C856.899 699.457 696.302 801.192 512 801.192S167.103 699.457 83.406 548.912a75.971 75.971 0 010-73.816zM512 148.974c-212.181 0-396.933 117.213-493.129 290.242-25.161 45.257-25.161 100.312 0 145.569C115.066 757.817 299.819 875.027 512 875.027s396.935-117.212 493.129-290.242c25.162-45.257 25.162-100.312 0-145.569C908.936 266.186 724.181 148.974 512 148.974zm-156.881 363.03c0-86.59 70.183-156.773 156.758-156.773 86.57 0 156.753 70.184 156.753 156.773 0 86.585-70.183 156.768-156.753 156.768-86.575 0-156.758-70.183-156.758-156.768zm156.758-230.609c-127.355 0-230.592 103.249-230.592 230.608 0 127.355 103.237 230.604 230.592 230.604 127.352 0 230.589-103.246 230.589-230.604S639.229 281.395 511.877 281.395z"/></symbol><symbol fill="none" id="sprite-telegram" viewBox="0 0 52 52"><title>telegram</title><path d="M26.057 52h-.114C11.638 52 0 40.362 0 26.057v-.114C0 11.638 11.638 0 25.943 0h.114C40.362 0 52 11.638 52 25.943v.114C52 40.362 40.362 52 26.057 52zm-.114-50.24C12.608 1.76 1.76 12.608 1.76 25.943v.114c0 13.335 10.848 24.183 24.183 24.183h.114c13.335 0 24.183-10.848 24.183-24.183v-.114c0-13.335-10.848-24.183-24.183-24.183h-.114z" fill="url(#paint0_linear_193_342)"/><path d="M10.395 25.142c.07-.036.141-.069.21-.1 1.193-.553 2.402-1.07 3.61-1.588.065 0 .174-.076.236-.1.093-.041.186-.08.28-.12l.536-.231 1.076-.46c.716-.306 1.433-.612 2.149-.92 1.433-.612 2.867-1.227 4.3-1.84l4.3-1.839 4.3-1.839 4.3-1.84c.319-.137.664-.34 1.005-.4.287-.052.567-.15.856-.205.547-.104 1.15-.146 1.675.081.182.08.349.19.488.33.665.658.572 1.738.431 2.664-.98 6.453-1.96 12.907-2.943 19.36-.134.885-.317 1.857-1.016 2.417-.59.473-1.432.526-2.163.325-.73-.202-1.374-.626-2.006-1.043l-7.865-5.207c-.623-.412-1.316-.95-1.31-1.699.004-.45.274-.851.548-1.209 2.278-2.97 5.564-5.013 8.009-7.846.345-.4.616-1.122.143-1.352-.282-.138-.606.049-.863.227-3.232 2.244-6.462 4.49-9.693 6.734-1.054.732-2.16 1.486-3.43 1.665-1.138.162-2.282-.155-3.382-.479a156.45 156.45 0 01-2.76-.836c-.487-.151-.99-.315-1.367-.658s-.594-.92-.367-1.378c.143-.287.42-.468.71-.616l.003.002z" fill="url(#paint1_linear_193_342)"/><defs><linearGradient id="paint0_linear_193_342" x1="0" y1="26" x2="52" y2="26" gradientUnits="userSpaceOnUse"><stop stop-color="#B1420A"/><stop offset=".255" stop-color="#ED560A"/><stop offset=".54" stop-color="#FF8040"/><stop offset=".775" stop-color="#ED560A"/><stop offset="1" stop-color="#B1420A"/></linearGradient><linearGradient id="paint1_linear_193_342" x1="9.59" y1="26.262" x2="40.248" y2="26.262" gradientUnits="userSpaceOnUse"><stop stop-color="#B1420A"/><stop offset=".255" stop-color="#ED560A"/><stop offset=".54" stop-color="#FF8040"/><stop offset=".775" stop-color="#ED560A"/><stop offset="1" stop-color="#B1420A"/></linearGradient></defs></symbol><symbol fill="none" id="sprite-whitelead" viewBox="0 0 52 52"><title>whitelead</title><path d="M26.057 52h-.114C11.638 52 0 40.362 0 26.057v-.114C0 11.638 11.638 0 25.943 0h.114C40.362 0 52 11.638 52 25.943v.114C52 40.362 40.362 52 26.057 52zm-.114-50.24C12.608 1.76 1.76 12.608 1.76 25.943v.114c0 13.335 10.848 24.183 24.183 24.183h.114c13.335 0 24.183-10.848 24.183-24.183v-.114c0-13.335-10.848-24.183-24.183-24.183h-.114z" fill="url(#paint0_linear_193_351)"/><path d="M9.393 35.681V22.324h6.558v7.164l3.644-1.7v2.307L9.393 35.681z" fill="url(#paint1_linear_193_351)"/><path d="M20.688 35.68V18.925h6.558v10.564l3.644-1.7v2.307l-10.203 5.586z" fill="url(#paint2_linear_193_351)"/><path d="M31.863 35.681V15.889h6.56v13.6l3.643-1.7v2.306l-10.203 5.586z" fill="url(#paint3_linear_193_351)"/><defs><linearGradient id="paint0_linear_193_351" x1="0" y1="26" x2="52" y2="26" gradientUnits="userSpaceOnUse"><stop stop-color="#B1420A"/><stop offset=".255" stop-color="#ED560A"/><stop offset=".54" stop-color="#FF8040"/><stop offset=".775" stop-color="#ED560A"/><stop offset="1" stop-color="#B1420A"/></linearGradient><linearGradient id="paint1_linear_193_351" x1="9.393" y1="29.003" x2="19.595" y2="29.003" gradientUnits="userSpaceOnUse"><stop stop-color="#B1420A"/><stop offset=".255" stop-color="#ED560A"/><stop offset=".54" stop-color="#FF8040"/><stop offset=".775" stop-color="#ED560A"/><stop offset="1" stop-color="#B1420A"/></linearGradient><linearGradient id="paint2_linear_193_351" x1="20.688" y1="27.302" x2="30.89" y2="27.302" gradientUnits="userSpaceOnUse"><stop stop-color="#B1420A"/><stop offset=".255" stop-color="#ED560A"/><stop offset=".54" stop-color="#FF8040"/><stop offset=".775" stop-color="#ED560A"/><stop offset="1" stop-color="#B1420A"/></linearGradient><linearGradient id="paint3_linear_193_351" x1="31.863" y1="25.785" x2="42.066" y2="25.785" gradientUnits="userSpaceOnUse"><stop stop-color="#B1420A"/><stop offset=".255" stop-color="#ED560A"/><stop offset=".54" stop-color="#FF8040"/><stop offset=".775" stop-color="#ED560A"/><stop offset="1" stop-color="#B1420A"/></linearGradient></defs></symbol></svg>