<svg width="52" height="52" viewBox="0 0 52 52" fill="none" xmlns="http://www.w3.org/2000/svg">
<path d="M26.0572 52H25.9428C11.6381 52 0 40.3619 0 26.0572V25.9428C0 11.6381 11.6381 0 25.9428 0H26.0572C40.3619 0 52 11.6381 52 25.9428V26.0572C52 40.3619 40.3619 52 26.0572 52ZM25.9428 1.76015C12.6079 1.76015 1.76015 12.6079 1.76015 25.9428V26.0572C1.76015 39.3921 12.6079 50.2399 25.9428 50.2399H26.0572C39.3921 50.2399 50.2399 39.3921 50.2399 26.0572V25.9428C50.2399 12.6079 39.3921 1.76015 26.0572 1.76015H25.9428Z" fill="url(#paint0_linear_193_345)"/>
<path d="M33.7737 11.1016H18.2281C13.9333 11.1016 10.4395 14.5955 10.4395 18.8902V33.1122C10.4395 37.4069 13.9333 40.9008 18.2281 40.9008H33.7737C38.0685 40.9008 41.5624 37.4069 41.5624 33.1122V18.8902C41.5624 14.5955 38.0685 11.1016 33.7737 11.1016ZM13.187 18.8902C13.187 16.1109 15.4488 13.8491 18.2281 13.8491H33.7737C36.553 13.8491 38.8148 16.1109 38.8148 18.8902V33.1122C38.8148 35.8914 36.553 38.1532 33.7737 38.1532H18.2281C15.4488 38.1532 13.187 35.8914 13.187 33.1122V18.8902Z" fill="url(#paint1_linear_193_345)"/>
<path d="M26.0006 33.2444C29.9944 33.2444 33.2454 29.9952 33.2454 25.9996C33.2454 22.0041 29.9962 18.7549 26.0006 18.7549C22.0051 18.7549 18.7559 22.0041 18.7559 25.9996C18.7559 29.9952 22.0051 33.2444 26.0006 33.2444ZM26.0006 21.5042C28.4807 21.5042 30.4978 23.5213 30.4978 26.0014C30.4978 28.4814 28.4807 30.4986 26.0006 30.4986C23.5206 30.4986 21.5035 28.4814 21.5035 26.0014C21.5035 23.5213 23.5206 21.5042 26.0006 21.5042Z" fill="url(#paint2_linear_193_345)"/>
<path d="M33.9168 19.9255C34.9923 19.9255 35.8688 19.0507 35.8688 17.9735C35.8688 16.8963 34.994 16.0215 33.9168 16.0215C32.8396 16.0215 31.9648 16.8963 31.9648 17.9735C31.9648 19.0507 32.8396 19.9255 33.9168 19.9255Z" fill="url(#paint3_linear_193_345)"/>
<defs>
<linearGradient id="paint0_linear_193_345" x1="0" y1="26" x2="52" y2="26" gradientUnits="userSpaceOnUse">
<stop stop-color="#B1420A"/>
<stop offset="0.255" stop-color="#ED560A"/>
<stop offset="0.54" stop-color="#FF8040"/>
<stop offset="0.775" stop-color="#ED560A"/>
<stop offset="1" stop-color="#B1420A"/>
</linearGradient>
<linearGradient id="paint1_linear_193_345" x1="10.4395" y1="26.0012" x2="41.5624" y2="26.0012" gradientUnits="userSpaceOnUse">
<stop stop-color="#B1420A"/>
<stop offset="0.255" stop-color="#ED560A"/>
<stop offset="0.54" stop-color="#FF8040"/>
<stop offset="0.775" stop-color="#ED560A"/>
<stop offset="1" stop-color="#B1420A"/>
</linearGradient>
<linearGradient id="paint2_linear_193_345" x1="18.7559" y1="25.9996" x2="33.2454" y2="25.9996" gradientUnits="userSpaceOnUse">
<stop stop-color="#B1420A"/>
<stop offset="0.255" stop-color="#ED560A"/>
<stop offset="0.54" stop-color="#FF8040"/>
<stop offset="0.775" stop-color="#ED560A"/>
<stop offset="1" stop-color="#B1420A"/>
</linearGradient>
<linearGradient id="paint3_linear_193_345" x1="31.9648" y1="17.9735" x2="35.8688" y2="17.9735" gradientUnits="userSpaceOnUse">
<stop stop-color="#B1420A"/>
<stop offset="0.255" stop-color="#ED560A"/>
<stop offset="0.54" stop-color="#FF8040"/>
<stop offset="0.775" stop-color="#ED560A"/>
<stop offset="1" stop-color="#B1420A"/>
</linearGradient>
</defs>
</svg>
