<svg width="52" height="52" viewBox="0 0 52 52" fill="none" xmlns="http://www.w3.org/2000/svg">
<path d="M26.0572 52H25.9428C11.6381 52 0 40.3619 0 26.0572V25.9428C0 11.6381 11.6381 0 25.9428 0H26.0572C40.3619 0 52 11.6381 52 25.9428V26.0572C52 40.3619 40.3619 52 26.0572 52ZM25.9428 1.76015C12.6079 1.76015 1.76015 12.6079 1.76015 25.9428V26.0572C1.76015 39.3921 12.6079 50.2399 25.9428 50.2399H26.0572C39.3921 50.2399 50.2399 39.3921 50.2399 26.0572V25.9428C50.2399 12.6079 39.3921 1.76015 26.0572 1.76015H25.9428Z" fill="url(#paint0_linear_193_342)"/>
<path d="M10.3953 25.1416C10.4657 25.1064 10.5361 25.073 10.6048 25.0413C11.7982 24.4886 13.0074 23.9711 14.2149 23.4537C14.28 23.4537 14.3891 23.378 14.4507 23.3533C14.544 23.3128 14.6373 23.2741 14.7306 23.2336C14.9101 23.1562 15.0896 23.0805 15.2674 23.003C15.6265 22.8499 15.9838 22.6968 16.3428 22.5437C17.0592 22.2374 17.7756 21.9311 18.492 21.6231C19.9247 21.0106 21.3593 20.3963 22.792 19.7837C24.2248 19.1712 25.6593 18.5569 27.0921 17.9444C28.5248 17.3319 29.9593 16.7176 31.3921 16.105C32.8249 15.4925 34.2594 14.8782 35.6922 14.2657C36.0108 14.1284 36.3557 13.9242 36.6972 13.8644C36.9841 13.8133 37.2639 13.7148 37.5526 13.6602C38.1 13.5564 38.7037 13.5141 39.2283 13.7412C39.4096 13.8204 39.5768 13.9312 39.7158 14.0703C40.3812 14.7286 40.2879 15.8093 40.1471 16.7352C39.1667 23.1879 38.1863 29.6423 37.2041 36.095C37.0703 36.9804 36.8873 37.952 36.1885 38.5117C35.5971 38.9852 34.7557 39.038 34.0253 38.8373C33.2948 38.6349 32.6506 38.2107 32.0187 37.7936C29.3979 36.0581 26.7753 34.3225 24.1544 32.587C23.5313 32.1752 22.8378 31.6366 22.8449 30.8885C22.8484 30.4379 23.1177 30.0366 23.3922 29.6793C25.6699 26.7081 28.9561 24.6664 31.4009 21.8326C31.7459 21.433 32.017 20.7114 31.5435 20.4808C31.2619 20.3435 30.938 20.53 30.681 20.7078C27.4494 22.952 24.2195 25.1979 20.9879 27.4421C19.9336 28.1743 18.8282 28.9277 17.5574 29.1072C16.4203 29.2692 15.2762 28.9523 14.1761 28.6285C13.2538 28.3574 12.3332 28.0793 11.4162 27.7924C10.9286 27.641 10.4252 27.4773 10.0486 27.1341C9.67189 26.7909 9.45542 26.2136 9.68248 25.7559C9.82505 25.469 10.1014 25.2877 10.3918 25.1399L10.3953 25.1416Z" fill="url(#paint1_linear_193_342)"/>
<defs>
<linearGradient id="paint0_linear_193_342" x1="0" y1="26" x2="52" y2="26" gradientUnits="userSpaceOnUse">
<stop stop-color="#B1420A"/>
<stop offset="0.255" stop-color="#ED560A"/>
<stop offset="0.54" stop-color="#FF8040"/>
<stop offset="0.775" stop-color="#ED560A"/>
<stop offset="1" stop-color="#B1420A"/>
</linearGradient>
<linearGradient id="paint1_linear_193_342" x1="9.58984" y1="26.2619" x2="40.248" y2="26.2619" gradientUnits="userSpaceOnUse">
<stop stop-color="#B1420A"/>
<stop offset="0.255" stop-color="#ED560A"/>
<stop offset="0.54" stop-color="#FF8040"/>
<stop offset="0.775" stop-color="#ED560A"/>
<stop offset="1" stop-color="#B1420A"/>
</linearGradient>
</defs>
</svg>
