<svg width="771" height="739" viewBox="0 0 771 739" fill="none" xmlns="http://www.w3.org/2000/svg">
<path d="M538.831 709.915C538.48 709.915 538.129 709.72 537.935 709.331L385.387 374.742C385.153 374.275 385.387 373.691 385.854 373.457C386.322 373.224 386.906 373.457 387.14 373.925L539.727 708.513C539.961 708.981 539.727 709.565 539.259 709.798C539.103 709.876 538.948 709.915 538.831 709.915Z" fill="#1E1E1E"/>
<path d="M770.009 455.469C769.931 455.469 769.892 455.469 769.814 455.43L386.048 375.288C385.542 375.171 385.191 374.665 385.308 374.158C385.425 373.652 385.931 373.302 386.438 373.419L770.204 453.561C770.71 453.678 771.061 454.184 770.944 454.729C770.866 455.158 770.477 455.469 770.009 455.469Z" fill="#1E1E1E"/>
<path d="M386.244 375.327C386.049 375.327 385.855 375.249 385.66 375.132C385.231 374.82 385.153 374.197 385.465 373.769L619.567 59.469C619.878 59.0407 620.502 58.9628 620.93 59.2743C621.359 59.5859 621.437 60.2089 621.125 60.6373L387.024 374.937C386.829 375.171 386.556 375.327 386.244 375.327Z" fill="#1E1E1E"/>
<path d="M386.242 375.327C385.814 375.327 385.463 375.054 385.307 374.665L266.659 1.25093C266.503 0.744685 266.776 0.199499 267.282 0.0437315C267.789 -0.112036 268.334 0.160557 268.49 0.666802L387.178 374.08C387.334 374.587 387.061 375.132 386.554 375.288C386.437 375.288 386.359 375.327 386.242 375.327Z" fill="#1E1E1E"/>
<path d="M386.243 375.327C386.087 375.327 385.931 375.288 385.814 375.21L36.8831 196.545C36.4156 196.311 36.2207 195.727 36.4545 195.22C36.6883 194.753 37.2728 194.558 37.7793 194.792L386.711 373.457C387.178 373.691 387.373 374.275 387.139 374.781C386.944 375.132 386.594 375.327 386.243 375.327Z" fill="#1E1E1E"/>
<path d="M0.957641 447.252C0.490062 447.252 0.100412 446.941 0.022482 446.473C-0.0944129 445.928 0.256272 445.422 0.801781 445.344L386.087 373.418C386.633 373.302 387.14 373.652 387.217 374.197C387.295 374.742 386.984 375.249 386.438 375.327L1.1135 447.213C1.07454 447.252 0.996606 447.252 0.957641 447.252Z" fill="#1E1E1E"/>
<path d="M94.9417 637.405C94.6689 637.405 94.3962 637.289 94.2013 637.094C93.8506 636.705 93.8896 636.081 94.2793 635.731L385.581 373.652C385.971 373.302 386.595 373.341 386.945 373.73C387.296 374.119 387.257 374.742 386.867 375.093L95.5651 637.172C95.4092 637.289 95.1755 637.405 94.9417 637.405Z" fill="#1E1E1E"/>
<path d="M240.592 738.966C240.475 738.966 240.358 738.927 240.241 738.888C239.734 738.693 239.5 738.109 239.695 737.642L385.346 374.003C385.541 373.496 386.126 373.263 386.593 373.457C387.1 373.652 387.334 374.236 387.139 374.704L241.488 738.343C241.332 738.732 240.981 738.966 240.592 738.966Z" fill="#1E1E1E"/>
<path d="M248.424 719.417C248.074 719.417 247.723 719.222 247.567 718.872C185.223 591.61 119.918 615.52 119.255 615.793L117.97 616.299L117.931 614.936C113.917 503.757 37.5069 440.866 36.7276 440.282C36.2989 439.931 36.26 439.347 36.5717 438.919C36.9224 438.49 37.5069 438.451 37.9355 438.763C38.7148 439.386 115.203 502.316 119.801 613.573C124.165 612.249 139.244 608.861 160.169 617.156C182.612 626.034 216.317 650.763 249.282 718.054C249.515 718.521 249.32 719.106 248.853 719.339C248.736 719.378 248.58 719.417 248.424 719.417Z" fill="#1E1E1E"/>
<path d="M256.84 697.493L256.607 695.701C256.49 694.689 242.891 595.387 149.531 588.144L148.479 588.066L148.635 587.015C148.751 586.236 160.324 509.637 126.425 465.243C112.826 447.447 93.655 437.05 69.4577 434.363L66.6133 434.051L69.0681 432.571C69.6525 432.221 129.113 395.615 140.569 336.424C147.037 303.128 137.296 268.898 111.657 234.707L110.683 233.422L112.241 233.15C112.709 233.072 158.532 225.206 200.653 194.013C239.462 165.274 282.947 110.249 269.777 11.259L269.465 8.80566L271.374 10.3633C271.959 10.8696 321.444 51.486 386.594 80.7313C446.6 107.64 532.517 130.11 601.174 84.275L603.629 82.6395L602.615 85.4043C602.421 85.9885 581.808 143.895 590.419 217.534C598.329 285.449 633.437 380.973 755.67 450.562L757.384 451.536L755.553 452.276C753.098 453.288 510.892 554.031 523.361 672.804L523.517 674.361L522.036 673.816C520.399 673.193 355.383 614.157 258.165 696.363L256.84 697.493ZM150.739 586.353C237.903 593.752 256.022 680.397 258.282 693.793C351.603 616.572 504.774 665.872 521.296 671.518C515.879 609.211 579.159 552.629 633.476 516.024C686.936 480.002 742.344 455.781 752.981 451.263C631.411 381.363 596.381 285.76 588.471 217.69C580.873 152.579 595.991 99.6571 599.888 87.4293C530.881 131.706 445.509 109.315 385.736 82.4837C327.562 56.3537 281.778 21.1502 272.115 13.4787C284.389 111.924 240.787 166.871 201.861 195.688C163.753 223.882 122.606 233.189 114.228 234.824C139.517 269.054 149.063 303.362 142.556 336.852C132.191 390.241 83.5241 425.406 72.4191 432.844C95.9149 436.076 114.618 446.59 128.061 464.153C160.246 506.366 151.986 576.968 150.739 586.353Z" fill="#1E1E1E"/>
<path d="M275.115 651.892L274.881 650.1C274.764 649.244 263.465 563.883 182.69 558.392L181.638 558.314L181.794 557.263C181.911 556.601 192.315 491.412 163.636 453.094C152.064 437.634 135.62 428.521 114.774 425.951L111.969 425.601L114.385 424.16C114.891 423.848 166.792 391.955 176.495 340.98C181.872 312.747 173.494 283.852 151.557 255.113L150.583 253.828L152.181 253.594C152.57 253.516 191.262 247.364 227.11 221.311C260.114 197.323 297.403 151.021 287.506 66.7122L287.233 64.2979L289.104 65.8555C289.532 66.206 331.264 100.825 386.438 125.553C437.248 148.334 510.152 167.104 569.106 127.345L571.6 125.67L570.587 128.474C570.392 128.98 552.818 178.32 560.222 241.016C567.041 298.845 597.122 380.155 701.743 439.23L703.496 440.243L701.626 440.983C699.522 441.839 492.15 526.265 503.684 629.695L503.879 631.253L502.398 630.707C500.995 630.162 360.643 578.447 276.557 650.685L275.115 651.892ZM183.859 556.523C258.828 562.287 274.453 635.77 276.518 648.114C356.903 580.706 486.305 623.075 501.502 628.371C497.605 585.34 530.57 539.155 596.966 494.644C642.243 464.309 689.196 444.059 698.976 439.97C595.018 380.545 565.014 299.156 558.196 241.172C551.766 186.381 564.274 141.675 567.781 130.499C508.515 168.74 436.157 149.97 385.542 127.306C336.68 105.42 298.338 75.7857 289.649 68.8151C298.689 152.579 261.283 198.803 228.123 222.908C196.055 246.195 161.688 253.75 154.012 255.23C175.56 284.008 183.742 312.981 178.365 341.369C169.676 387.048 127.75 417.579 117.58 424.393C137.764 427.431 153.778 436.699 165.195 451.964C192.353 488.219 185.106 547.878 183.859 556.523Z" fill="#1E1E1E"/>
<path d="M293.351 606.33L293.156 604.5C293.078 603.799 284.038 532.379 215.85 528.602L214.759 528.524L214.953 527.434C215.031 526.888 224.305 473.11 200.848 440.905C191.302 427.781 177.586 419.915 160.052 417.54L157.324 417.15L159.662 415.748C160.091 415.476 204.433 388.294 212.343 345.575C216.629 322.444 209.576 298.884 191.38 275.558L190.328 274.234L192.003 274C192.315 273.961 223.876 269.483 253.412 248.571C280.648 229.295 311.703 191.716 305.079 122.088L304.846 119.712L306.677 121.27C307.729 122.165 389.361 190.431 469.94 190.431C493.008 190.431 515.997 184.823 536.999 170.453L539.493 168.74L538.441 171.583C538.285 171.972 523.712 212.783 529.868 264.537C535.596 312.241 560.651 379.338 647.698 427.976L649.491 428.989L647.582 429.728C645.828 430.39 473.33 498.539 483.89 586.625L484.085 588.222L482.565 587.638C481.396 587.17 365.709 542.816 294.793 605.084L293.351 606.33ZM217.019 526.694C279.791 530.86 292.922 591.259 294.832 602.475C362.319 544.919 467.992 580.317 481.786 585.301C478.279 548.657 505.437 509.949 560.495 473.304C597.59 448.615 636.126 432.338 645.01 428.716C558.663 379.766 533.687 312.591 527.959 264.732C522.66 220.182 532.596 183.655 535.752 173.647C486.228 205.813 426.845 190.742 385.425 172.206C345.876 154.487 314.899 130.421 307.261 124.268C313.067 193.39 281.895 230.891 254.542 250.206C228.474 268.626 200.848 274.467 193.951 275.674C211.758 299.04 218.616 322.677 214.291 345.964C207.238 384.011 172.014 409.868 162.896 416.021C179.768 418.903 193.055 426.886 202.485 439.814C224.461 470.072 218.188 518.866 217.019 526.694Z" fill="#1E1E1E"/>
<path d="M311.626 560.729L311.431 558.821C311.353 558.237 304.612 500.836 249.009 498.733L247.879 498.695L248.113 497.565C248.191 497.137 256.257 454.768 238.06 428.638C230.54 417.89 219.552 411.27 205.329 409.011L202.719 408.583L204.979 407.22C205.368 406.986 242.112 384.517 248.23 350.092C251.425 332.062 245.697 313.798 231.241 295.885L230.111 294.483L231.865 294.289C232.839 294.172 329.082 282.489 322.692 177.385L322.536 175.088L324.289 176.606C325.108 177.307 386.984 230.307 449.952 230.307C468.694 230.307 487.514 225.634 504.853 213.484L507.386 211.693L506.334 214.614C506.217 214.925 494.605 247.169 499.593 287.98C504.191 325.598 524.258 378.481 593.693 416.644L595.564 417.656L593.576 418.396C592.174 418.903 454.51 470.734 464.096 543.439L464.33 545.113L462.771 544.451C461.875 544.062 370.814 507.067 313.029 559.366L311.626 560.729ZM250.178 496.864C300.794 499.434 311.431 546.866 313.107 556.796C367.658 509.092 449.835 537.52 462.031 542.154C454.939 473.577 574.172 424.043 591.005 417.384C522.271 378.87 502.32 325.948 497.723 288.175C493.553 253.75 500.996 225.361 503.684 216.716C432.456 263.563 338.668 190.859 324.796 179.566C329.394 276.765 246.788 293.977 233.774 296.041C247.84 313.993 253.295 332.296 250.1 350.482C244.723 380.934 216.045 402.158 208.057 407.571C221.617 410.257 232.254 416.994 239.619 427.587C256.607 451.964 251.308 489.933 250.178 496.864Z" fill="#1E1E1E"/>
<path d="M329.899 515.206L329.704 513.22C329.548 511.428 325.145 469.371 282.167 468.982H280.959L281.231 467.813C281.309 467.502 288.167 436.504 275.192 416.527C269.698 408.116 261.437 402.742 250.566 400.639L248.072 400.171L250.254 398.886C250.566 398.692 279.79 380.934 284.037 354.882C286.141 341.914 281.777 328.986 271.062 316.446L269.776 314.967L271.724 314.85C272.425 314.811 340.458 309.943 340.302 232.877V230.657L341.939 232.137C342.484 232.643 384.761 270.417 430.078 270.417C444.417 270.417 459.068 266.64 472.783 256.671L475.394 254.801L474.264 257.8C473.913 258.735 440.559 352.507 539.764 405.506L541.751 406.558L539.647 407.259C538.595 407.609 435.806 443.163 444.417 500.486L444.69 502.277L443.053 501.537C442.391 501.226 375.994 471.591 331.379 513.921L329.899 515.206ZM283.336 467.035C321.794 468.086 329.938 502.628 331.34 511.156C372.955 473.382 431.792 494.8 442.196 499.045C436.078 445.733 522.347 411.504 536.881 406.13C448.041 357.374 466.783 275.869 471.536 259.864C418.349 295.496 353.239 244.17 342.212 234.902C341.238 304.608 284.738 315.122 273.672 316.524C283.92 329.103 288.05 342.07 285.907 355.155C282.167 378.052 259.957 394.642 253.177 399.237C263.463 401.768 271.373 407.22 276.789 415.476C288.947 434.129 284.543 461.038 283.336 467.035Z" fill="#1E1E1E"/>
<path d="M348.096 469.761L347.94 467.58C347.862 466.373 345.68 437.906 315.326 439.152L313.963 439.191L314.352 437.906C314.391 437.711 320.041 418.085 312.287 404.338C308.858 398.263 303.286 394.135 295.766 392.149L293.545 391.565L295.532 390.397C295.766 390.28 317.469 377.196 319.846 359.672C320.898 351.806 317.898 344.134 310.923 336.852L309.209 335.061L311.703 335.216C313.339 335.294 351.953 337.086 357.954 288.136L358.188 286.15L359.591 287.552C360.019 287.98 402.218 329.531 440.677 299.779L443.404 297.676L442.196 300.87C441.963 301.454 420.259 361.23 485.759 394.174L488.019 395.304L485.603 395.966C484.902 396.16 417.025 415.398 424.662 457.338L425.013 459.324L423.22 458.351C422.792 458.117 381.099 435.881 349.654 468.164L348.096 469.761ZM317.275 437.166C342.953 437.166 348.525 458.662 349.654 465.438C378.216 437.75 414.181 452.003 422.402 455.819C417.337 417.968 470.836 398.614 482.72 394.797C426.338 365.085 435.962 315.434 439.43 303.05C404.322 327.545 367.189 297.053 359.591 290.2C353.551 332.374 322.496 336.696 313.807 337.086C320.158 344.329 322.847 352 321.756 359.906C319.651 375.482 303.793 387.243 298.338 390.903C305.351 393.24 310.612 397.407 314.002 403.404C321.093 415.982 317.742 432.493 316.573 437.205C316.807 437.166 317.041 437.166 317.275 437.166Z" fill="#1E1E1E"/>
<path d="M366.216 424.627L366.254 421.862C366.254 421.784 366.254 415.593 361.89 411.854C358.851 409.245 354.37 408.388 348.603 409.323L346.733 409.634L347.59 407.921C347.629 407.843 351.798 399.471 349.227 392.111C347.941 388.411 345.135 385.529 340.888 383.582L339.174 382.803L340.771 381.869C340.927 381.791 355.149 373.418 355.5 365.007C355.617 362.164 354.058 359.555 350.863 357.297C350.824 357.297 350.824 357.258 350.824 357.258L351.954 355.7C351.954 355.7 351.954 355.7 351.993 355.7C352.227 355.856 355.656 358.153 360.527 357.102C365.904 355.934 371.008 351.222 375.606 343.083L376.424 341.681L377.282 343.044C377.321 343.122 381.646 349.82 389.361 350.871C395.322 351.689 401.752 348.963 408.492 342.849L411.649 339.967L410.051 343.901C409.622 344.952 399.959 369.836 431.677 382.803L435.417 384.322L431.404 384.673C431.248 384.673 414.61 386.191 407.363 396.355C403.934 401.106 403.115 407.103 404.869 414.152L405.609 417.189L403.271 415.125C403.193 415.086 396.842 409.518 387.88 410.219C380.905 410.764 374.203 414.892 367.969 422.446L366.216 424.627ZM352.889 407.025C357.137 407.025 360.566 408.155 363.176 410.413C366.449 413.217 367.579 417.072 367.969 419.526C374.125 412.633 380.788 408.895 387.724 408.349C394.426 407.804 399.647 410.413 402.414 412.166C401.284 405.623 402.414 399.977 405.765 395.304C411.532 387.243 422.286 384.322 427.819 383.31C404.323 372.172 405.687 353.831 407.324 346.471C401.011 351.494 394.855 353.636 389.088 352.857C382.542 351.962 378.334 347.6 376.58 345.419C371.865 353.286 366.605 357.881 360.916 359.088C358.89 359.516 357.098 359.477 355.617 359.205C356.981 361.035 357.604 363.06 357.487 365.202C357.137 372.99 347.123 380.194 343.265 382.726C347.123 384.867 349.733 387.827 351.058 391.565C353.201 397.718 351.214 404.26 350.006 407.22C351.019 407.064 351.954 407.025 352.889 407.025Z" fill="#1E1E1E"/>
<path d="M366.216 424.627L366.254 421.862C366.254 421.784 366.254 415.593 361.89 411.854C358.851 409.245 354.37 408.388 348.603 409.323L346.733 409.634L347.59 407.921C347.629 407.843 351.798 399.471 349.227 392.111C347.941 388.411 345.135 385.529 340.888 383.582L339.174 382.803L340.771 381.869C340.927 381.791 355.149 373.418 355.5 365.007C355.617 362.164 354.058 359.555 350.863 357.297C350.824 357.297 350.824 357.258 350.824 357.258L351.954 355.7C351.954 355.7 351.954 355.7 351.993 355.7C352.227 355.856 355.656 358.153 360.527 357.102C365.904 355.934 371.008 351.222 375.606 343.083L376.424 341.681L377.282 343.044C377.321 343.122 381.646 349.82 389.361 350.871C395.322 351.689 401.752 348.963 408.492 342.849L411.649 339.967L410.051 343.901C409.622 344.952 399.959 369.836 431.677 382.803L435.417 384.322L431.404 384.673C431.248 384.673 414.61 386.191 407.363 396.355C403.934 401.106 403.115 407.103 404.869 414.152L405.609 417.189L403.271 415.125C403.193 415.086 396.842 409.518 387.88 410.219C380.905 410.764 374.203 414.892 367.969 422.446L366.216 424.627ZM352.889 407.025C357.137 407.025 360.566 408.155 363.176 410.413C366.449 413.217 367.579 417.072 367.969 419.526C374.125 412.633 380.788 408.895 387.724 408.349C394.426 407.804 399.647 410.413 402.414 412.166C401.284 405.623 402.414 399.977 405.765 395.304C411.532 387.243 422.286 384.322 427.819 383.31C404.323 372.172 405.687 353.831 407.324 346.471C401.011 351.494 394.855 353.636 389.088 352.857C382.542 351.962 378.334 347.6 376.58 345.419C371.865 353.286 366.605 357.881 360.916 359.088C358.89 359.516 357.098 359.477 355.617 359.205C356.981 361.035 357.604 363.06 357.487 365.202C357.137 372.99 347.123 380.194 343.265 382.726C347.123 384.867 349.733 387.827 351.058 391.565C353.201 397.718 351.214 404.26 350.006 407.22C351.019 407.064 351.954 407.025 352.889 407.025Z" fill="black" fill-opacity="0.6"/>
</svg>
